<?xml version="1.0" standalone="no"?>
<!DOCTYPE svg PUBLIC "-//W3C//DTD SVG 20010904//EN"
 "http://www.w3.org/TR/2001/REC-SVG-20010904/DTD/svg10.dtd">
<svg version="1.0" xmlns="http://www.w3.org/2000/svg"
 width="900.000000pt" height="900.000000pt" viewBox="0 0 900.000000 900.000000"
 preserveAspectRatio="xMidYMid meet">

<g transform="translate(0.000000,900.000000) scale(0.100000,-0.100000)"
fill="#ffffff" stroke="none">
<path d="M3151 6933 c-18 -9 -42 -31 -52 -47 -18 -30 -19 -80 -16 -1470 l2
-1440 110 -32 c122 -36 1215 -353 1615 -469 323 -94 1079 -314 1103 -321 16
-5 17 70 15 1527 l-3 1533 -30 8 c-16 5 -77 22 -135 37 -58 16 -157 43 -220
60 -63 18 -149 41 -190 52 -41 12 -88 25 -105 29 -16 5 -70 20 -120 33 -49 13
-160 43 -245 67 -85 23 -173 46 -195 51 -22 6 -69 19 -105 29 -62 19 -608 168
-845 232 -60 16 -199 54 -308 83 -109 30 -208 55 -220 55 -12 0 -37 -8 -56
-17z m804 -1773 c0 -811 0 -820 -47 -915 -45 -91 -144 -155 -239 -155 -34 0
-41 4 -50 27 -21 55 -17 66 25 75 57 12 92 42 123 106 l28 57 3 723 3 722 -79
0 c-43 0 -81 2 -83 4 -2 2 -2 32 -1 65 l4 61 156 -2 157 -3 0 -765z m230 760
c5 -8 222 -638 265 -770 20 -61 239 -697 246 -714 8 -20 5 -25 106 264 22 63
52 151 68 195 16 44 101 287 189 540 88 253 163 468 166 478 6 14 20 17 81 17
l74 0 0 -875 0 -875 -75 0 -75 0 -2 645 -3 644 -82 -242 c-45 -133 -128 -375
-184 -537 -56 -162 -117 -343 -137 -402 l-35 -108 -83 0 c-46 0 -84 2 -84 4 0
10 -423 1262 -429 1268 -3 4 -8 -279 -9 -630 l-3 -637 -75 -3 -74 -3 0 876 0
875 74 0 c41 0 78 -5 81 -10z"/>
<path d="M6068 4585 c2 -1334 0 -1585 -12 -1585 -12 0 -191 50 -491 138 -55
16 -143 42 -195 57 -52 15 -138 40 -190 56 -52 15 -212 62 -355 103 -143 41
-462 133 -710 205 -247 72 -538 157 -645 187 -165 48 -235 68 -372 110 -17 5
-18 -8 -18 -177 0 -250 -2 -247 225 -309 66 -18 134 -36 150 -41 17 -5 113
-31 215 -59 102 -27 201 -54 220 -60 52 -15 431 -117 540 -146 52 -14 140 -38
195 -54 55 -15 163 -45 240 -65 77 -20 178 -48 225 -61 47 -14 101 -29 120
-34 138 -37 523 -142 828 -225 89 -25 171 -45 183 -45 28 0 69 23 99 55 l25
27 0 1693 0 1694 -32 33 c-20 20 -52 39 -80 48 -123 35 -139 39 -153 40 -13 0
-15 -181 -12 -1585z"/>
</g>
</svg>
